<?xml version="1.0" encoding="utf-8"?>
<!-- Generator: Adobe Illustrator 24.2.0, SVG Export Plug-In . SVG Version: 6.00 Build 0)  -->
<svg version="1.1" id="Layer_1" xmlns="http://www.w3.org/2000/svg" xmlns:xlink="http://www.w3.org/1999/xlink" x="0px" y="0px"
	 viewBox="0 0 24 24" style="enable-background:new 0 0 24 24;" xml:space="preserve">
<style type="text/css">
	.st0{fill:#FFFFFF;}
</style>
<path class="st0" d="M20.7,6H3.2C2.5,6,2,6.6,2,7.3v10.5C2,18.4,2.5,19,3.2,19H8c0.5,0,1-0.3,1.2-0.8l1.4-3.5c0.2-0.6,0.8-1,1.4-1
	s1.2,0.4,1.4,1l1.4,3.5c0.2,0.5,0.6,0.8,1.1,0.8h4.8c0.7,0,1.3-0.6,1.3-1.3V7.3C22,6.6,21.5,6,20.7,6 M7.2,14.6
	c-1.2,0-2.2-1-2.2-2.3C5,11,6,10,7.2,10s2.2,1,2.2,2.3C9.4,13.6,8.4,14.6,7.2,14.6 M16.8,14.6c-1.2,0-2.2-1-2.2-2.3s1-2.3,2.2-2.3
	s2.2,1,2.2,2.3S18,14.6,16.8,14.6z"/>
</svg>
